<svg version="1.1" id="Layer_1" xmlns="http://www.w3.org/2000/svg" xmlns:xlink="http://www.w3.org/1999/xlink" x="0px" y="0px" viewBox="0 0 99 53" enable-background="new 0 0 99 53" xml:space="preserve">
<g id="Layer_x0020_1">
	<path fill="#0A0B0C" d="M25.6,38.8l-4.8,0.5c-0.9,2.3-3.1,3.9-5.7,3.9c-3.3,0-6-2.7-6-6c0-3.3,2.7-6,6-6c1.4,0,2.6,0.4,3.6,1.2
		l5.4-0.7c-1.9-3-5.2-5-9-5c-5.8,0-10.6,4.7-10.6,10.6c0,5.8,4.7,10.6,10.6,10.6C20.4,47.8,24.8,43.9,25.6,38.8L25.6,38.8z
		 M69.5,18.2h1.8l-6.9,6.7l-1.7,0C62.7,24.9,69.5,18.2,69.5,18.2z M3.6,6l2.5-1.4l11.2,0.2c12,3.7,6.2,9.7,22,10.1
		c0.6-9.3,8.8-10.5,24.4-5.2c1.7,0.6,2.4,1.4,2.2,2.5L35.5,31.9l0.5,0.4l33-21.4l-0.2-2.7l1.4-1l1.9,2.5l1.3-1.7l-5.7-2.8l-1.2-2
		L67.7,2c1.8,0.5,3.5,1,5.1,1.4c0.3,0.1,0.3-3.3,0.6-3.3c2.4,0.2,4.2,3.9,3.8,4.8c6.9,2.8,10.9,5.9,12.2,9.4c1.2,2.6,0.3,4-1.2,5
		l-1.6,0.1c-1.4,1.2-3.6,2.5-4.9,3.9c0.1-0.9,11.8,0.6,10.6,2.2c0,0-0.3,0.1-0.8,0.1C96,28.2,99,33,99,38.4
		c0,7.9-6.4,14.3-14.3,14.3c-7.9,0-14.3-6.4-14.3-14.3c0-2.7,0.8-5.3,2.1-7.5c-2.3,2.2-3.8,4.1-3.3,5.4c0.2,4.1,1.8,11.1,0.5,10.7
		l-32.3-0.1c-2.3-2.4-5.6-4.2-7.3-7c-1.3,7.1-7.4,12.4-14.9,12.4C6.8,52.3,0,45.6,0,37.2c0-8.3,6.8-15.1,15.1-15.1
		c6.1,0,11.4,3.6,13.7,8.8l-1.2-4.7l-1.7-3.1L19.1,17l-1,0.9L9.3,15c-2.1,1.6-4,3.4-5.4,5.5l-1.4,0c0.6-2.4,1.6-4.6,3.8-6.5
		l-4.6-2.1l-0.5-3l2.3,0l0.7-0.9L3.6,6L3.6,6z M86.4,28l0.1,2.7c3.5,0.8,6.1,4,6.1,7.7c0,4.4-3.6,7.9-7.9,7.9
		c-4.4,0-7.9-3.6-7.9-7.9c0-2.8,1.5-5.3,3.7-6.7c-0.4-0.8-0.8-1.6-1.2-2.4c-3.1,1.8-5.2,5.2-5.2,9.1c0,5.8,4.7,10.6,10.6,10.6
		c5.8,0,10.6-4.7,10.6-10.6C95.2,33.2,91.4,28.8,86.4,28L86.4,28z"></path>
</g>
</svg>