<svg version="1.1" id="Layer_1" xmlns="http://www.w3.org/2000/svg" xmlns:xlink="http://www.w3.org/1999/xlink" x="0px" y="0px" viewBox="0.3 33.9 99.4 36.7" enable-background="new 0.3 33.9 99.4 36.7" xml:space="preserve">
<g id="Layer_1_1_" display="none">
	<g id="St9YL3_1_" display="inline" opacity="0.39">
	</g>
</g>
<g id="Layer_2">
	<path d="M15.5,55.4c-4.2,0-7.6,3.4-7.6,7.6s3.4,7.6,7.6,7.6c4.2,0,7.6-3.4,7.6-7.6S19.7,55.4,15.5,55.4z M15.5,66.2
		c-1.8,0-3.2-1.4-3.2-3.2s1.4-3.2,3.2-3.2c1.8,0,3.2,1.4,3.2,3.2C18.7,64.7,17.3,66.2,15.5,66.2z"></path>
	<path d="M82.5,55.4c-4.2,0-7.6,3.4-7.6,7.6c0,4.2,3.4,7.6,7.6,7.6c4.2,0,7.6-3.4,7.6-7.6C90.2,58.8,86.7,55.4,82.5,55.4z
		 M82.5,66.2c-1.8,0-3.2-1.4-3.2-3.2s1.4-3.2,3.2-3.2s3.2,1.4,3.2,3.2S84.3,66.2,82.5,66.2z"></path>
	<path d="M78.2,44.5c0,0-18.8-8.8-24.8-10c-6-1.3-26.6-0.1-28.6,1.2l-11.5,5.6L2.1,46.8L0.3,57.5c0,0-0.1,6.3,0.4,7.8h5.5L6.3,63
		c0-5.1,4.1-9.2,9.2-9.2c5.1,0,9.2,4.1,9.2,9.2l0.2,2.2h48.4l0-2.8c0-5.1,3.9-8.9,9-8.9s9.5,3.8,9.5,8.9L92,65c0,0,5.8,0.3,7.7-0.4
		c0,0,0.7-9.8-2.9-13.4C93.6,48.3,87.2,46.4,78.2,44.5z M26,45.9c0,0,2.4-5,4.9-6.9c1.9-1.6,12.4-1.6,12.4-1.6l0.4,9.7L26,45.9z
		 M71.6,48.2l-24.7-1l-0.6-9.8c9.2-0.3,19.6,4.5,25.6,8.1C77.9,48.9,71.6,48.2,71.6,48.2z"></path>
</g>
</svg>