<svg version="1.1" id="Layer_1" xmlns="http://www.w3.org/2000/svg" xmlns:xlink="http://www.w3.org/1999/xlink" x="0px" y="0px" viewBox="0.2 32.9 99.5 32.2" enable-background="new 0.2 32.9 99.5 32.2" xml:space="preserve">
<g>
	<path d="M23.5,61.1c0-1.5-1.2-2.7-2.7-2.7s-2.7,1.2-2.7,2.7c0,1.5,1.2,2.7,2.7,2.7S23.5,62.5,23.5,61.1L23.5,61.1z M13.1,61.1
		c0-1.5-1.2-2.7-2.7-2.7c-1.5,0-2.7,1.2-2.7,2.7c0,1.5,1.2,2.7,2.7,2.7C11.9,63.8,13.1,62.5,13.1,61.1L13.1,61.1z M91.9,45.4
		c0,2.7,2.1,2.8,5.9,4l1.4,0.4v-6.4c0-0.8-0.6-1.4-1.4-1.4h-5.9V45.4L91.9,45.4z M72.6,61.1c0-2.7-2.2-4.9-4.9-4.9
		c-0.9,0-1.7,0.2-2.4,0.6c-1.5,0.8-2.5,2.4-2.5,4.3c0,0.5,0.1,0.9,0.2,1.3h-1.1v-5.6l-1.9,0v5.6H26.6v-1.2h32.2V58H26.6v-1.2h-3.4
		c1.5,0.8,2.5,2.4,2.5,4.3v0.1h-0.8c0,2.2-1.8,4-4.1,4c-2.2,0-4-1.8-4.1-4h-0.9v-0.1c0-1.8,1-3.5,2.5-4.3h-5.6
		c1.5,0.8,2.5,2.4,2.5,4.3l0,0.1h-0.8c0,2.2-1.8,4-4.1,4c-2.2,0-4-1.8-4.1-4H5.5v-0.1c0-1.8,1-3.5,2.5-4.3H0.2V32.9h83.2v23.9l1.4,0
		v-1.9V35.8C85.3,35.9,93,38,93,38c4.3,1.4,6.7,1.5,6.7,4.6v11.7c0,0.4-0.3,1-0.9,1.4c0.6,0.5,0.9,1,0.9,1.4v2.3V60
		c0,0.8-1.1,2.2-3.8,2.4c0.1-0.4,0.2-0.9,0.2-1.3c0-2.7-2.2-4.9-4.9-4.9c-2.7,0-4.9,2.2-4.9,4.9c0,0.5,0.1,0.9,0.2,1.3h-0.8h-0.3
		h-0.5H72.4C72.5,62,72.6,61.5,72.6,61.1L72.6,61.1z M93.9,61.1c0-1.5-1.2-2.7-2.7-2.7c-1.5,0-2.7,1.2-2.7,2.7
		c0,1.5,1.2,2.7,2.7,2.7C92.7,63.8,93.9,62.5,93.9,61.1L93.9,61.1z M95.3,61.1c0,2.2-1.8,4.1-4.1,4.1c-2.2,0-4.1-1.8-4.1-4.1
		c0-2.2,1.8-4.1,4.1-4.1C93.5,57,95.3,58.8,95.3,61.1L95.3,61.1z M70.4,61.1c0-1.5-1.2-2.7-2.7-2.7c-1.5,0-2.7,1.2-2.7,2.7
		c0,1.5,1.2,2.7,2.7,2.7S70.4,62.5,70.4,61.1L70.4,61.1z M71.7,61.1c0,2.2-1.8,4.1-4.1,4.1s-4.1-1.8-4.1-4.1c0-2.2,1.8-4.1,4.1-4.1
		C69.9,57,71.7,58.8,71.7,61.1L71.7,61.1z"></path>
</g>
</svg>