<svg version="1.1" id="Layer_1" xmlns="http://www.w3.org/2000/svg" xmlns:xlink="http://www.w3.org/1999/xlink" x="0px" y="0px" viewBox="0 24.1 100 51" enable-background="new 0 24.1 100 51" xml:space="preserve">
<circle cx="83" cy="68" r="7.2"></circle>
<circle cx="16.9" cy="68" r="7.2"></circle>
<path d="M0,30.1l0,37.1c0,2.2,1.8,4,4,4h3.5C7.2,70.2,7,69.1,7,68c0-5.5,4.5-9.9,9.9-9.9c5.5,0,9.9,4.4,9.9,9.9
	c0,1.1-0.2,2.2-0.5,3.2h47.3c-0.3-1-0.5-2.1-0.5-3.2c0-5.5,4.4-9.9,9.9-9.9c5.5,0,9.9,4.4,9.9,9.9c0,1.1-0.2,2.2-0.5,3.2h3.3
	c2.1,0,3.9-1.6,4-3.7c0.9-13.3,0.1-25.7-3.2-36.7c-1.2-3.9-4.8-6.6-8.9-6.6H6C2.7,24.1,0,26.8,0,30.1z M76,28.3h11.6
	c2.2,0,4.2,1.5,4.9,3.6c1.6,5.6,2.7,11.6,3.1,18.3H81.9L76,45.8V28.3z M53,28.3h19V45H53V28.3z M28,28.3h21V45H28V28.3z M4.2,29.9
	c0-0.9,0.7-1.6,1.6-1.6H24V45H4.2V29.9z"></path>
</svg>