<svg version="1.1" id="Calque_1" xmlns="http://www.w3.org/2000/svg" xmlns:xlink="http://www.w3.org/1999/xlink" x="0px" y="0px" viewBox="0.8 15.6 100 71" enable-background="new 0.8 15.6 100 71" xml:space="preserve">
<g>
	<path d="M22,57.1c-4.5,0-8.2,3.7-8.2,8.2s3.7,8.2,8.2,8.2c4.5,0,8.2-3.7,8.2-8.2C30.2,60.8,26.6,57.1,22,57.1z"></path>
	<path d="M22,44C10.3,44,0.8,53.6,0.8,65.3C0.8,77,10.3,86.6,22,86.6c11.7,0,21.3-9.5,21.3-21.3C43.3,53.6,33.8,44,22,44z M22,77.3
		c-6.6,0-12-5.4-12-12s5.4-12,12-12s12,5.4,12,12S28.6,77.3,22,77.3z"></path>
	<path d="M85.6,56.3c-8.4,0-15.1,6.8-15.1,15.1c0,8.4,6.8,15.2,15.1,15.2c8.4,0,15.2-6.8,15.2-15.2C100.8,63.1,94,56.3,85.6,56.3z
		 M85.6,78.6c-3.9,0-7.1-3.2-7.1-7.1c0-3.9,3.2-7.1,7.1-7.1c3.9,0,7.1,3.2,7.1,7.1C92.7,75.4,89.5,78.6,85.6,78.6z"></path>
	<path d="M73.3,57.7c-3.2-2.5-8.3-5.5-15.2-7v-1.9c7.8,1.6,13.4,5,16.7,7.7c3-2.2,6.7-3.5,10.7-3.5c2.2,0,4.3,0.4,6.2,1.1
		c-0.2-4.7-0.8-9.8-2.4-10.3c-7.8-2.9-17.9-4.6-26.1-5.4V23.3c0-2.1,1.1-2.6,1.2-2.7c1-0.3,1.6-1.3,1.3-2.3c-0.3-1-1.3-1.6-2.3-1.3
		c-1.5,0.4-4,2.2-4,6.3v14.8c-0.6,0-1.1-0.1-1.7-0.1l-4.4-19c-0.2-0.7-0.8-1.3-1.5-1.4c-0.9-0.2-22.5-3.9-38.8-0.6
		c-1,0.2-1.7,1.2-1.5,2.2c0.2,1,1.2,1.7,2.2,1.5c0.2,0,0.5-0.1,0.7-0.1l-3,17.4c0,0,0,0.1,0,0.1h-0.7c-3.6,0-4.3,2.3-4.3,2.3
		l-2.2,5.5l1.8,0.9C10.5,43,16,40.9,22,40.9c13.5,0,24.5,11,24.5,24.4c0,2.4-0.4,4.6-1,6.8h21.8c0-0.2,0-0.5,0-0.8
		C67.2,66,69.6,61.1,73.3,57.7z M80.6,44.5c0.5-0.2,1,0,1.2,0.5l1.5,3.9c0.2,0.5-0.1,1-0.5,1.2c-0.1,0-0.2,0.1-0.3,0.1
		c-0.4,0-0.7-0.2-0.9-0.6L80,45.7C79.8,45.2,80.1,44.6,80.6,44.5z M76.1,44.5c0.5-0.2,1,0,1.2,0.5l1.5,3.9c0.2,0.5-0.1,1-0.5,1.2
		c-0.1,0-0.2,0.1-0.3,0.1c-0.4,0-0.7-0.2-0.9-0.6l-1.5-3.9C75.4,45.2,75.6,44.6,76.1,44.5z M31.7,38.9c-1.5-0.5-2.9-0.8-4.2-0.9
		H15.4l2.8-16.3h13.5V38.9z M54.4,53.5l-6.9,0c-2.3-6.1-7.2-10.5-12-13V21.7h14.7l4.2,18L54.4,53.5L54.4,53.5L54.4,53.5z"></path>
</g>
</svg>